<svg width="24" height="24" viewBox="0 0 24 24" fill="none" xmlns="http://www.w3.org/2000/svg">
    <path d="M8.51106 20.5748C7.96313 20.5748 7.48264 20.3724 7.06959 19.9675C6.65654 19.5626 6.45001 19.0876 6.45001 18.5425C6.45001 17.964 6.65521 17.479 7.06561 17.0873C7.47601 16.6956 7.95518 16.4998 8.50311 16.4998C9.05105 16.4998 9.52085 16.6908 9.91251 17.0729C10.3042 17.455 10.5 17.9402 10.5 18.5284C10.5 19.0832 10.3055 19.563 9.91649 19.9677C9.52749 20.3724 9.05901 20.5748 8.51106 20.5748ZM15.5449 20.5748C14.997 20.5748 14.5192 20.3724 14.1115 19.9675C13.7038 19.5626 13.5 19.0876 13.5 18.5425C13.5 17.964 13.7038 17.479 14.1114 17.0873C14.519 16.6956 14.9948 16.4998 15.5387 16.4998C16.0896 16.4998 16.5625 16.6908 16.9575 17.0729C17.3525 17.455 17.55 17.9402 17.55 18.5284C17.55 19.0832 17.3528 19.563 16.9584 19.9677C16.564 20.3724 16.0929 20.5748 15.5449 20.5748ZM8.51106 14.0248C7.96313 14.0248 7.48264 13.821 7.06959 13.4134C6.65654 13.0058 6.45001 12.5259 6.45001 11.9736C6.45001 11.4077 6.65521 10.9331 7.06561 10.5498C7.47601 10.1665 7.95518 9.9748 8.50311 9.9748C9.05105 9.9748 9.52085 10.1672 9.91251 10.552C10.3042 10.9368 10.5 11.408 10.5 11.9655C10.5 12.523 10.3055 13.0056 9.91649 13.4133C9.52749 13.821 9.05901 14.0248 8.51106 14.0248ZM15.5449 14.0248C14.997 14.0248 14.5192 13.821 14.1115 13.4134C13.7038 13.0058 13.5 12.5259 13.5 11.9736C13.5 11.4077 13.7038 10.9331 14.1114 10.5498C14.519 10.1665 14.9948 9.9748 15.5387 9.9748C16.0896 9.9748 16.5625 10.1672 16.9575 10.552C17.3525 10.9368 17.55 11.408 17.55 11.9655C17.55 12.523 17.3528 13.0056 16.9584 13.4133C16.564 13.821 16.0929 14.0248 15.5449 14.0248ZM8.51106 7.4998C7.96313 7.4998 7.48264 7.29601 7.06959 6.88843C6.65654 6.48085 6.45001 6.0009 6.45001 5.44858C6.45001 4.8894 6.65521 4.4123 7.06561 4.0173C7.47601 3.6223 7.95518 3.4248 8.50311 3.4248C9.05105 3.4248 9.52085 3.622 9.91251 4.0164C10.3042 4.41079 10.5 4.88611 10.5 5.44238C10.5 5.99866 10.3055 6.48064 9.91649 6.8883C9.52749 7.29597 9.05901 7.4998 8.51106 7.4998ZM15.5449 7.4998C14.997 7.4998 14.5192 7.29601 14.1115 6.88843C13.7038 6.48085 13.5 6.0009 13.5 5.44858C13.5 4.8894 13.7038 4.4123 14.1114 4.0173C14.519 3.6223 14.9948 3.4248 15.5387 3.4248C16.0896 3.4248 16.5625 3.622 16.9575 4.0164C17.3525 4.41079 17.55 4.88611 17.55 5.44238C17.55 5.99866 17.3528 6.48064 16.9584 6.8883C16.564 7.29597 16.0929 7.4998 15.5449 7.4998Z" fill="#000"/>
</svg>
